<?xml version="1.0" encoding="UTF-8"?><svg xmlns="http://www.w3.org/2000/svg" viewBox="0 0 4000 4500"><defs><style>.cls-1,.cls-2,.cls-3,.cls-4,.cls-5,.cls-6,.cls-7,.cls-8,.cls-9,.cls-10,.cls-11{stroke-linecap:round;stroke-linejoin:round;}.cls-1,.cls-2,.cls-4,.cls-5,.cls-7,.cls-8,.cls-9,.cls-10,.cls-11{stroke:#f7941d;}.cls-1,.cls-4,.cls-10,.cls-12{fill:#0a364c;}.cls-1,.cls-11{stroke-width:2px;}.cls-2,.cls-13,.cls-5,.cls-11{fill:#124669;}.cls-2,.cls-4,.cls-9{stroke-width:4px;}.cls-3{stroke:#d1d3d4;}.cls-3,.cls-6{fill:#fff;}.cls-5,.cls-7,.cls-8,.cls-10,.cls-14{stroke-width:3px;}.cls-6{stroke:#fff;}.cls-15{fill:#146959;}.cls-7{fill:#5e85a3;}.cls-8,.cls-9,.cls-16,.cls-14{fill:none;}.cls-17{fill:#91aec4;}.cls-16,.cls-14{stroke:#5e85a3;stroke-miterlimit:10;}.cls-18{opacity:.41;}.cls-19{fill:#262262;}</style></defs><g id="Sky"><g class="cls-18"><ellipse class="cls-19" cx="1999.01" cy="2249.68" rx="1968.42" ry="2207.89"/></g></g><g id="Stars"><path class="cls-6" d="M1347.56,639.44s-83.44-3.21-86.56-219.11c-33.33,213.33-129.33,206.67-129.33,206.67,97.47,32.88,97.72,145.39,96.39,171.76-.31,3.56-.39,5.58-.39,5.58,0,0,.06-.56,.14-1.61l.86-9.87c4.04-34.45,23.93-135.65,118.9-153.41Z"/><path class="cls-6" d="M1856.63,758.73s-72.37-7.55-62.76-195.74c-41.15,183.88-124.24,172.61-124.24,172.61,82.87,34.19,76.67,132.18,74.01,155.06-.48,3.08-.66,4.84-.66,4.84,0,0,.08-.48,.21-1.4l1.31-8.54c5.48-29.77,28.55-116.77,112.13-126.82Z"/><path class="cls-6" d="M1431.81,835.6s-20.98-7.14-3.84-68.49c-26.2,57.9-50.1,48.84-50.1,48.84,22.09,16.59,12.81,48.46,10.28,55.82-.38,.98-.56,1.55-.56,1.55,0,0,.06-.15,.17-.45l1.04-2.73c3.89-9.45,17.36-36.61,43.02-34.54Z"/><path class="cls-6" d="M1125.57,1038.93s-83.44-2.6-86.56-177.51c-33.33,172.82-129.33,167.42-129.33,167.42,97.47,26.64,97.72,117.78,96.39,139.14-.31,2.88-.39,4.52-.39,4.52,0,0,.06-.45,.14-1.31l.86-7.99c4.04-27.91,23.93-109.89,118.9-124.28Z"/><path class="cls-6" d="M713.99,889.3s-23.85-6.96-7.69-76.51c-26.48,66.13-53.68,57.16-53.68,57.16,25.55,17.49,16.73,53.63,14.27,62-.37,1.12-.55,1.76-.55,1.76,0,0,.06-.18,.17-.51l1.03-3.11c3.89-10.77,17.63-41.85,46.46-40.8Z"/><path class="cls-6" d="M1967.46,1045.19s-27.61-8.84-6.66-89.5c-32.9,76.36-64.36,65.08-64.36,65.08,29.29,21.17,17.91,63.08,14.78,72.77-.47,1.3-.7,2.04-.7,2.04,0,0,.08-.2,.21-.59l1.29-3.6c4.86-12.45,21.83-48.31,55.44-46.21Z"/><path class="cls-6" d="M2036.16,428.22s-28.87-8.37-9.48-92.56c-31.9,80.08-64.83,69.29-64.83,69.29,30.96,21.1,20.37,64.85,17.4,74.99-.45,1.36-.66,2.13-.66,2.13,0,0,.07-.21,.2-.62l1.24-3.76c4.68-13.04,21.24-50.69,56.13-49.48Z"/><path class="cls-6" d="M697.12,1328s-35.09-7.22-19.79-110.89c-30.54,99.97-70.68,90.24-70.68,90.24,38.75,22.39,30.19,76.32,27.6,88.86-.41,1.68-.59,2.65-.59,2.65,0,0,.07-.26,.18-.76l1.12-4.67c4.36-16.23,20.58-63.38,62.16-65.43Z"/><path class="cls-6" d="M1582.65,1385.69s-52.1-7.71-38.32-158.44c-36.45,146.55-96.17,135.61-96.17,135.61,58.73,29.32,50.68,107.78,47.93,126.07-.46,2.46-.65,3.86-.65,3.86,0,0,.08-.39,.21-1.12l1.26-6.82c5.04-23.75,24.9-93.01,85.75-99.16Z"/></g><g id="Moon"><path class="cls-3" d="M2663.05,169.2s-758.05,673.8-445.16,1527.13,1365.79,804.74,1747.78,715.26c0,0,48.52-659.12-238.3-1226.49-305.04-603.43-769.04-899.43-1064.33-1015.9Z"/></g><g id="Land"><path class="cls-15" d="M161.74,3033.61c-20.83-56.55,617.71-437.72,1838.26-384.39s1763.72,587.5,1763.72,587.5c0,0-463.94,1176.06-1744.94,1220.86,0,0-1308.44,65.42-1857.04-1423.97Z"/></g><g id="Hop_Animation"><path class="cls-9" d="M155.33,3014.39s-88.55-944.72,583.45-1033.61,776.63,663.34,776.63,663.34c0,0-65.52-542.45,588.71-585.12s582.26,679.34,582.26,679.34c0,0,47.08-138.9,135.97-142.45"/></g><g id="Layer_11"><polygon class="cls-13" points="3221.8 2297.36 3235.78 2285 3294.22 2252.84 3290.56 2265.29 3221.8 2297.36"/><g><path class="cls-12" d="M3467.23,2468.02l-110.72-234.72-427.53,201.67,84.09,178.27c-.69-.07-1.38-.13-2.06-.18l-5.5,83.02-10.56,82.5c27.15,3.48,53.1-4.59,71.95-20.04,0,0,0,0,0,0l111.44,57.79c6.07,3.25,5.56-3.66,8.81-9.73l1.85-14.93c-1.58-7.97-1.05-16.68-7.12-19.94l-89.94-48.21c1.82-5.07,3.12-10.38,3.82-15.89,.7-5.48,.79-10.92,.31-16.26l15.02-55.36,21.79-10.28c.39,.34,.92,.54,1.56,.45l162.56-18.73c1.23-.18,3.08-6.21,2.66-7.38l-12.31-34.56,86.04,21.33,67.83,88.69-25.22-144.62c-.21-1.17-1.61-1.65-2.49-.86l-3.21,2.97,32.69-53.56,24.24-11.43Z"/><polygon class="cls-12" points="3494.33 2219.61 3381 2068.94 3414.96 2177.13 3494.33 2219.61"/></g><polygon class="cls-13" points="3094.56 2712.35 3101.03 2729.02 3091.45 2724.48 3094.56 2712.35"/><polygon class="cls-13" points="3221.8 2297.36 3235.78 2285 3294.22 2252.84 3290.56 2265.29 3221.8 2297.36"/><g><path class="cls-13" d="M3467.23,2468.02l-110.72-234.72-427.53,201.67,84.09,178.27c-.69-.07-1.38-.13-2.06-.18l-5.5,83.02-10.56,82.5c27.15,3.48,53.1-4.59,71.95-20.04,0,0,0,0,0,0l111.44,57.79c6.07,3.25,5.56-3.66,8.81-9.73l1.85-14.93c-1.58-7.97-1.05-16.68-7.12-19.94l-89.94-48.21c1.82-5.07,3.12-10.38,3.82-15.89,.7-5.48,.79-10.92,.31-16.26l15.02-55.36,21.79-10.28c.39,.34,.92,.54,1.56,.45l162.56-18.73c1.23-.18,3.08-6.21,2.66-7.38l-12.31-34.56,86.04,21.33,67.83,88.69-25.22-144.62c-.21-1.17-1.61-1.65-2.49-.86l-3.21,2.97,32.69-53.56,24.24-11.43Z"/><polygon class="cls-13" points="3494.33 2219.61 3381 2068.94 3414.96 2177.13 3494.33 2219.61"/></g><polygon class="cls-13" points="3094.56 2712.35 3101.03 2729.02 3091.45 2724.48 3094.56 2712.35"/></g><g id="Rabbit"><path class="cls-10" d="M3496.25,2222.54s8.31-167.13-34.07-187.94c-42.38-20.81-72.03-109.31-83.1-113.94,0,0-14.17-11.18-18.25-1.08-4.09,10.1-34.21,86.71-11.1,108.79"/><g><path class="cls-4" d="M3357.77,2194.29c-44.94,28.99-104.25,88.06-74.47,188.26,0,0,64.37,107.08,196.75,106.24,3.78-.02,7.41-1.46,10.65-3.39,20.66-12.37,94.06-64.5,70.3-169.51,0,0-15.11-78.22-119.45-127.11-27.06-12.68-58.67-10.69-83.77,5.51Z"/><path class="cls-4" d="M3299.78,2249.68s-80.11,55.54-212.49,58.64c-4.57,.11-9.1-.84-13.32-2.6-22.83-9.53-111.52-37.99-216.97,39.94-114.75,84.82-40.47,216.31-6.4,248.21,4.56,4.27,7.61,9.9,8.79,16.04,4.75,24.79,12.74,86.59-14.39,130.42-34.67,56,278.67,158.67,293.33,157.33s85.33-42.67,26.67-98.67c0,0-140-54.67-145.33-65.33s-18.67-37.33,5.33-52,109.33-120-37.33-242.67"/><path class="cls-4" d="M3238.33,2521.67s88,197.33,161.33,208,48-53.33,29.33-69.33-89.48-125.33-85.41-150.67"/><path class="cls-4" d="M3439.67,2671.67c19.78,4.84,34.92-5.86,37.99-15.58,1.95-6.16,.22-12.89-4.35-17.45-29.02-28.94-58.98-109.41-58.98-109.41"/><path class="cls-4" d="M3436.56,2489.64s-35.37,63.59-69.68,80.03"/><path class="cls-4" d="M3283.3,2608.02s-144.29,93.64-217.74,24.31"/></g><path class="cls-10" d="M3504.41,2405.67l26.07,26.67s15.17-1.83,16.96-5.13"/><path class="cls-5" d="M3515.67,2449.52s8.89-8.3,14.81-17.19"/><path class="cls-7" d="M3465.33,2384.29c11.47,2.28,22.86-4.33,26.41-15.47,6.33-19.88,7.31-52.11-6.29-66.86-19.33-20.96-51.2-19.13-59.26-15.41-9.63,4.44-27.85,36.15-9.48,61.63,14.08,19.53,28.51,32.1,48.63,36.1Z"/><path class="cls-8" d="M3105.74,2654.24s-22.37,62.26,0,76.62,74.76,35.98,79.26,43.7c2.07,3.56,10.02,26.8-4.33,43.62"/><path class="cls-10" d="M3426.78,2180.53s-46.22-141.97-90.67-162.41-80-117.33-91.56-121.78c0,0-15.11-11.56-18.67,0s-24.89,116.39,0,139.53c0,0-11.07,127.4,92.72,190.42"/><path class="cls-1" d="M3394.13,2181.16s-50.67-140.2-79.78-153.92c-29.11-13.72-55.59-84.65-63.12-87.57,0,0-10.08-8.09-11.89,.63s-18.68,70.01-1.92,86.39"/><path class="cls-1" d="M3271.52,2139s18.37,61.22,56.59,78.02"/><path class="cls-4" d="M2805.93,2524.78s-156.63-61.04-78.41-251.26c0,0,5.65,45.14,13.04,49.78,0,0-14.81-76.44,33.78-136.3,0,0,14.81,22.48,9.48,35.54,0,0,7.09-33.17,11.54-31.39s45.94,69.93,34.09,114.96c0,0,16-76.44,23.7-72.3,0,0,16.99,92.77,50.05,83.52"/><path class="cls-5" d="M3496.25,2222.54s8.31-167.13-34.07-187.94c-42.38-20.81-72.03-109.31-83.1-113.94,0,0-14.17-11.18-18.25-1.08-4.09,10.1-34.21,86.71-11.1,108.79"/><g><path class="cls-2" d="M3357.77,2194.29c-44.94,28.99-104.25,88.06-74.47,188.26,0,0,64.37,107.08,196.75,106.24,3.78-.02,7.41-1.46,10.65-3.39,20.66-12.37,94.06-64.5,70.3-169.51,0,0-15.11-78.22-119.45-127.11-27.06-12.68-58.67-10.69-83.77,5.51Z"/><path class="cls-2" d="M3299.78,2249.68s-80.11,55.54-212.49,58.64c-4.57,.11-9.1-.84-13.32-2.6-22.83-9.53-111.52-37.99-216.97,39.94-114.75,84.82-40.47,216.31-6.4,248.21,4.56,4.27,7.61,9.9,8.79,16.04,4.75,24.79,12.74,86.59-14.39,130.42-34.67,56,278.67,158.67,293.33,157.33s85.33-42.67,26.67-98.67c0,0-140-54.67-145.33-65.33s-18.67-37.33,5.33-52,109.33-120-37.33-242.67"/><path class="cls-2" d="M3238.33,2521.67s88,197.33,161.33,208,48-53.33,29.33-69.33-89.48-125.33-85.41-150.67"/><path class="cls-2" d="M3439.67,2671.67c19.78,4.84,34.92-5.86,37.99-15.58,1.95-6.16,.22-12.89-4.35-17.45-29.02-28.94-58.98-109.41-58.98-109.41"/><path class="cls-2" d="M3436.56,2489.64s-35.37,63.59-69.68,80.03"/><path class="cls-2" d="M3283.3,2608.02s-144.29,93.64-217.74,24.31"/></g><path class="cls-5" d="M3504.41,2405.67l26.07,26.67s15.17-1.83,16.96-5.13"/><path class="cls-5" d="M3515.67,2449.52s8.89-8.3,14.81-17.19"/><path class="cls-10" d="M3465.33,2384.29c11.47,2.28,22.86-4.33,26.41-15.47,6.33-19.88,7.31-52.11-6.29-66.86-19.33-20.96-51.2-19.13-59.26-15.41-9.63,4.44-27.85,36.15-9.48,61.63,14.08,19.53,28.51,32.1,48.63,36.1Z"/><path class="cls-8" d="M3105.74,2654.24s-22.37,62.26,0,76.62,74.76,35.98,79.26,43.7c2.07,3.56,10.02,26.8-4.33,43.62"/><path class="cls-5" d="M3426.78,2180.53s-46.22-141.97-90.67-162.41-80-117.33-91.56-121.78c0,0-15.11-11.56-18.67,0s-24.89,116.39,0,139.53c0,0-11.07,127.4,92.72,190.42"/><path class="cls-11" d="M3394.13,2181.16s-50.67-140.2-79.78-153.92c-29.11-13.72-55.59-84.65-63.12-87.57,0,0-10.08-8.09-11.89,.63s-18.68,70.01-1.92,86.39"/><path class="cls-11" d="M3271.52,2139s18.37,61.22,56.59,78.02"/><path class="cls-2" d="M2805.93,2524.78s-156.63-61.04-78.41-251.26c0,0,5.65,45.14,13.04,49.78,0,0-14.81-76.44,33.78-136.3,0,0,14.81,22.48,9.48,35.54,0,0,7.09-33.17,11.54-31.39s45.94,69.93,34.09,114.96c0,0,16-76.44,23.7-72.3,0,0,16.99,92.77,50.05,83.52"/></g><g id="Layer_14"><g><path class="cls-17" d="M1647.37,3015.09s26.41,57.9,82.11,56.66,101.73-44.45,101.73-44.45c0,0-73.78,36.12-127.68,19.3s0,0,0,0c0,0-33.68-6.05-56.16-31.51"/><path class="cls-17" d="M1831.21,3027.31s39.03-20.11,85.2-10.92c37.87,7.54,80.89,33.76,111.74,112.82,0,0,5.33,16.16,6.84,46.28,1.85,36.97-14.51,92.41-89.3,148.55,0,0,162.9-23.44,182.67-146.7,4.84-30.19,.01-64.61-15.22-106.07,0,0-36.41-113.78-130.63-103.97,0,0-41.15,6.3-74.7,22.64-15.37,7.48-76.6,37.37-76.6,37.37Z"/><path class="cls-17" d="M1937.27,3324.85s177.22-25.72,219.68,84.65c0,0,10.47,26.88,9.87,38.99,0,0,4.32,56.97-5.1,78.39s-22.38,91.8-118.27,140.32-167.45,20.77-167.45,20.77c0,0,75.11-24.99,136.45-111.22,0,0,35.56-55.11,34.07-64.59,0,0,28.44-51.26-3.26-111.41,0,0-30.14-50.47-105.98-75.9Z"/><path class="cls-17" d="M2421.77,3443.26c.57,.6-6.96-14.07-6.96-14.07-1.78-5.93-9.48-12-9.48-12-15.85-11.26-43.11,7.41-43.11,7.41l-33.04,24.89-27.41,25.78c-4.59,1.78-13.42,21.15-13.42,21.15-9.24,16.24-19.33,93.96,74.48,179.96,93.81,86,182.44,59.79,182.44,59.79,0,0,75.75-6.23,139.48-131.21,63.73-124.98-31.79-231.82-31.79-231.82-1.86-5.32-25.61-28.64-33.04-37.6-22.6-27.23-134.99-106.85-158.41-130.34-33.67-33.78-40.49-116.15-40.49-116.15-4.44-142.22,103.11-153.78,103.11-153.78,136-16.89,172.06,32.03,172.06,32.03-20.04-41.72-94.1-68.91-94.1-68.91-202.04-57.32-255.31,91.34-255.31,91.34-60.9,159.35-6.69,222.17-6.69,222.17,0,0,11.6,10.92,12.34,10.92l27.85,17.63,57.19,30.37,52.59,29.63,38.37,24.74,31.56,24.3,23.7,21.63,17.63,20.74,16.59,24.3,13.63,32,5.19,26.81,.89,20-4.15,29.33-9.48,29.93-12.89,27.11-18.52,29.63-23.56,30.07-26.96,25.93s-26.81,20.15-36,22.07c0,0-28.89,12.89-58.22,6.81-29.33-6.07-41.93-14.96-41.93-14.96,0,0-31.56-19.41-48.3-41.04,0,0-36.59-46.81-38.67-62.67,0,0-16.97-42.07-15.89-56.74s-3.37-21.48,13.82-39.7,52.15-39.56,58.96-39.56c0,0,32.74-11.85,45.93,2.07Z"/><g><path class="cls-17" d="M1464.09,3353.77c-.87,5.17-11.94,10.74-26.92,15.97,50.51-27.81,102.56-89.97,96.47-228.52,0,0-12.92-120.59-182.54-142.39,0,0-91.62-12.46-152.62,58.21l6.17,49.23s168.53-130.24,231.35,57.6c0,0,57.26,109.8-87.96,228.15,0,0,10.23,.6,25.9-1.56,61.39,.13,102.51,27.47,102.51,27.47,80,65.78,22.52,180.74,22.52,180.74-67.56,94.81-222.97,77.04-222.97,77.04,38.96,27.26,152.45,58.67,209.4,37.39,49.55-18.51,100.67-59.91,113.08-192.06s-134.39-167.27-134.39-167.27Z"/><path class="cls-17" d="M1017.14,3057.04c-7.89,20-17.89,111.56,82.98,106.64,100.87-4.92,98.35-106.64,98.35-106.64-119.89,131.11-181.33,0-181.33,0Z"/></g><g><path class="cls-14" d="M1464.09,3353.77c158.95,48.73,134.39,167.27,134.39,167.27-24,325.33-322.48,154.67-322.48,154.67l-77.52-618.67s0,109.33-106.67,106.67-74.67-106.67-74.67-106.67c0,0,61.33,130.67,181.33,0s346.67-21.33,336,109.33c-6.23,76.28-17.78,145.28-70.39,187.39-37.51,30.03-130.89,47.07-223.1,42.63"/><path class="cls-14" d="M1204.65,3106.27c150.17-97.43,204.5-14.57,236.5,70.77,0,0,37.33,112-93.11,214.98"/><path class="cls-14" d="M1348.03,3392.02s237.11-25.65,151.78,203.68c0,0-44.97,90.67-223.82,80"/></g><g><path class="cls-16" d="M1945.69,3324.04s137.23-85.66,71.46-220.77-184.89-76.44-184.89-76.44c74.67,151.11-10.67,631.11-10.67,631.11,88.89,87.11,346.67,17.78,346.67-184.89s-270.22-142.22-270.22-142.22c6.74-.28,13.84-2.96,20.69-3.64,124.85-12.46,260.16-90.74,194.43-255.92-69.33-174.22-191.98-86.1-280.89-44.44-127.11,59.56-184.89-11.73-184.89-11.73,0,0,48,119.28,184.89,11.73"/><path class="cls-16" d="M1937.27,3324.85s165.2,48.64,110.09,186.42-171.37,176.7-171.37,176.7"/></g><g><path class="cls-16" d="M2422.48,3443.71c-12-13.33-10.67-74.67-117.33,28s188,420,352,181.33-131.1-384.79-192-444c-48-46.67-98.67-266.67,93.33-277.33s161.55,116,160,165.65c-1.56,50.05-116,125.02-126.67,31.69s42.67-56,42.67-56"/><path class="cls-16" d="M2721.09,3062.3c10.28-49.7-33.07-186.43-225.07-175.76s-201.59,281.17-153.59,327.84c60.9,59.21,416.26,154.83,252.26,393.49s-332.2-69.49-282.87-121.49c52.89-55.75,98.67-56,110.67-42.67"/></g></g></g></svg>